<?xml version="1.0" standalone="no"?>
<!DOCTYPE svg PUBLIC "-//W3C//DTD SVG 20010904//EN"
 "http://www.w3.org/TR/2001/REC-SVG-20010904/DTD/svg10.dtd">
<svg version="1.0" xmlns="http://www.w3.org/2000/svg"
 width="560.000000pt" height="560.000000pt" viewBox="0 0 560.000000 560.000000"
 preserveAspectRatio="xMidYMid meet">
<metadata>
Created by potrace 1.11, written by Peter Selinger 2001-2013
</metadata>
<g transform="translate(0.000000,560.000000) scale(0.100000,-0.100000)"
fill="#000000" stroke="none">
<path d="M5435 5224 c-66 -8 -216 -26 -334 -39 -182 -21 -221 -29 -256 -50
-47 -27 -88 -76 -115 -138 -31 -69 -371 -1516 -395 -1677 -13 -89 -14 -89 -85
46 -82 158 -416 759 -634 1143 -207 365 -249 411 -378 411 -29 0 -186 -23
-348 -50 -362 -61 -352 -59 -347 -73 3 -7 93 -140 202 -296 383 -552 756
-1113 1138 -1710 l169 -265 111 -752 c62 -414 115 -755 118 -759 4 -3 132 12
285 34 154 22 305 43 337 46 31 4 57 10 57 12 0 3 -43 334 -96 737 -53 402
-96 747 -97 766 -1 66 359 1229 654 2111 93 278 169 509 169 512 0 8 -4 8
-155 -9z"/>
<path d="M1391 4579 c-99 -11 -187 -28 -581 -115 -288 -64 -802 -183 -806
-187 -4 -4 931 -3906 938 -3912 3 -4 163 30 355 74 191 44 463 105 603 135
140 30 285 64 322 76 294 91 535 305 654 580 104 240 127 551 63 848 -45 207
-118 352 -239 473 -105 106 -216 166 -367 200 l-98 22 96 96 c113 113 175 211
221 351 28 85 31 111 36 245 5 169 -8 261 -59 430 -56 182 -127 312 -228 418
-206 217 -514 307 -910 266z m268 -754 c96 -53 151 -143 197 -322 32 -123 36
-262 11 -344 -34 -111 -114 -187 -252 -238 -76 -28 -495 -124 -504 -116 -9 10
-209 941 -203 946 4 4 104 27 222 53 118 25 224 47 235 50 11 3 70 4 130 3
101 -2 114 -5 164 -32z m286 -1536 c78 -14 143 -48 188 -98 47 -52 71 -100
103 -208 24 -77 27 -106 28 -233 1 -142 0 -146 -30 -210 -39 -81 -101 -145
-179 -181 -40 -19 -153 -49 -328 -87 -230 -50 -267 -56 -271 -43 -16 55 -207
943 -205 946 6 5 475 105 538 114 81 12 91 12 156 0z"/>
</g>
</svg>
