<?xml version="1.0" standalone="no"?>
<!DOCTYPE svg PUBLIC "-//W3C//DTD SVG 20010904//EN"
 "http://www.w3.org/TR/2001/REC-SVG-20010904/DTD/svg10.dtd">
<svg version="1.0" xmlns="http://www.w3.org/2000/svg"
 width="260.000000pt" height="260.000000pt" viewBox="0 0 260.000000 260.000000"
 preserveAspectRatio="xMidYMid meet">
<metadata>
Created by potrace 1.11, written by Peter Selinger 2001-2013
</metadata>
<g transform="translate(0.000000,260.000000) scale(0.100000,-0.100000)"
fill="#000000" stroke="none">
<path d="M430 1300 c0 -782 3 -1170 10 -1170 6 0 52 9 103 21 50 11 162 35
248 54 103 22 177 44 218 65 80 40 168 130 208 211 106 215 122 586 34 791
-27 63 -86 127 -144 153 l-48 23 35 21 c122 76 184 253 172 493 -14 258 -83
396 -232 463 -81 37 -152 45 -386 45 l-218 0 0 -1170z m490 847 c34 -17 50
-33 70 -72 23 -46 25 -59 24 -185 -1 -257 -48 -327 -230 -345 l-69 -7 3 313
c2 227 7 316 15 322 20 13 140 -3 187 -26z m17 -913 c16 -11 41 -46 58 -79 28
-56 29 -66 33 -212 8 -297 -42 -403 -210 -439 -35 -7 -73 -13 -85 -14 l-23 0
0 379 0 380 38 4 c80 10 161 2 189 -19z"/>
<path d="M1285 2448 c73 -321 180 -779 234 -1011 l71 -298 -7 -395 -6 -394 29
0 c16 0 76 7 134 15 58 8 108 15 113 15 4 0 7 178 7 395 l0 396 106 437 c58
240 127 526 155 634 27 109 49 204 49 213 0 13 -20 15 -128 15 l-128 0 -78
-357 c-87 -395 -104 -471 -105 -461 -1 4 -39 175 -85 380 -46 205 -87 388 -91
406 l-7 32 -134 0 c-134 0 -134 0 -129 -22z"/>
</g>
</svg>
