<?xml version="1.0" standalone="no"?>
<!DOCTYPE svg PUBLIC "-//W3C//DTD SVG 20010904//EN"
 "http://www.w3.org/TR/2001/REC-SVG-20010904/DTD/svg10.dtd">
<svg version="1.0" xmlns="http://www.w3.org/2000/svg"
 width="260.000000pt" height="260.000000pt" viewBox="0 0 260.000000 260.000000"
 preserveAspectRatio="xMidYMid meet">
<metadata>
Created by potrace 1.11, written by Peter Selinger 2001-2013
</metadata>
<g transform="translate(0.000000,260.000000) scale(0.100000,-0.100000)"
fill="#000000" stroke="none">
<path d="M430 1294 c0 -998 2 -1175 14 -1171 7 3 99 24 202 46 104 23 218 48
254 57 282 68 427 341 407 768 -11 237 -70 371 -187 429 l-50 25 49 35 c58 42
91 94 123 197 20 66 23 95 23 235 0 88 -6 183 -12 211 -45 192 -144 298 -311
333 -30 6 -152 11 -282 11 l-230 0 0 -1176z m476 857 c82 -37 107 -99 106
-265 -1 -241 -58 -326 -229 -339 l-63 -5 0 314 0 314 73 0 c48 0 85 -6 113
-19z m23 -916 c73 -37 105 -159 98 -370 -8 -239 -59 -326 -207 -356 -30 -6
-65 -13 -77 -16 l-23 -5 0 380 0 381 48 4 c68 6 128 0 161 -18z"/>
<path d="M1280 2460 c0 -10 198 -866 260 -1123 l40 -169 0 -415 0 -415 28 6
c15 2 68 10 117 16 50 6 100 13 113 16 l22 4 0 387 0 386 46 191 c74 309 264
1089 270 1109 5 16 -6 17 -130 17 -132 0 -136 -1 -141 -22 -13 -57 -154 -707
-161 -743 -7 -37 -8 -38 -15 -15 -5 14 -45 187 -89 385 -45 198 -83 368 -86
378 -5 15 -20 17 -140 17 -79 0 -134 -4 -134 -10z"/>
</g>
</svg>
