<svg version="1" xmlns="http://www.w3.org/2000/svg" width="346.667" height="346.667" viewBox="0 0 260.000000 260.000000"><path d="M43 130c0 78.2.3 117 1 117 .6 0 5.2-.9 10.3-2.1 5-1.1 16.2-3.5 24.8-5.4 10.3-2.2 17.7-4.4 21.8-6.5 8-4 16.8-13 20.8-21.1 10.6-21.5 12.2-58.6 3.4-79.1-2.7-6.3-8.6-12.7-14.4-15.3l-4.8-2.3 3.5-2.1c12.2-7.6 18.4-25.3 17.2-49.3-1.4-25.8-8.3-39.6-23.2-46.3-8.1-3.7-15.2-4.5-38.6-4.5H43v117zm49-84.7c3.4 1.7 5 3.3 7 7.2 2.3 4.6 2.5 5.9 2.4 18.5-.1 25.7-4.8 32.7-23 34.5l-6.9.7.3-31.3c.2-22.7.7-31.6 1.5-32.2 2-1.3 14 .3 18.7 2.6zm1.7 91.3c1.6 1.1 4.1 4.6 5.8 7.9 2.8 5.6 2.9 6.6 3.3 21.2.8 29.7-4.2 40.3-21 43.9-3.5.7-7.3 1.3-8.5 1.4H71v-75.9l3.8-.4c8-1 16.1-.2 18.9 1.9zM128.5 15.2c7.3 32.1 18 77.9 23.4 101.1l7.1 29.8-.7 39.5-.6 39.4h2.9c1.6 0 7.6-.7 13.4-1.5 5.8-.8 10.8-1.5 11.3-1.5.4 0 .7-17.8.7-39.5v-39.6l10.6-43.7c5.8-24 12.7-52.6 15.5-63.4 2.7-10.9 4.9-20.4 4.9-21.3 0-1.3-2-1.5-12.8-1.5h-12.8l-7.8 35.7c-8.7 39.5-10.4 47.1-10.5 46.1-.1-.4-3.9-17.5-8.5-38s-8.7-38.8-9.1-40.6l-.7-3.2h-13.4c-13.4 0-13.4 0-12.9 2.2z"/></svg>