<?xml version="1.0" standalone="no"?>
<!DOCTYPE svg PUBLIC "-//W3C//DTD SVG 20010904//EN"
 "http://www.w3.org/TR/2001/REC-SVG-20010904/DTD/svg10.dtd">
<svg version="1.0" xmlns="http://www.w3.org/2000/svg"
 width="260.000000pt" height="260.000000pt" viewBox="0 0 260.000000 260.000000"
 preserveAspectRatio="xMidYMid meet">
<metadata>
Created by potrace 1.11, written by Peter Selinger 2001-2013
</metadata>
<g transform="translate(0.000000,260.000000) scale(0.100000,-0.100000)"
fill="#000000" stroke="none">
<path d="M620 1300 c0 -506 2 -920 3 -920 15 0 380 82 407 91 125 43 216 159
257 328 21 86 23 315 4 391 -28 110 -79 184 -150 213 -30 13 -32 15 -15 21 37
11 94 81 114 138 33 95 42 183 31 296 -19 179 -63 264 -162 315 -75 38 -137
47 -325 47 l-164 0 0 -920z m384 662 c58 -34 71 -73 71 -207 0 -107 -3 -125
-25 -170 -31 -61 -70 -85 -150 -92 l-60 -6 0 246 c0 187 3 247 13 251 22 10
121 -4 151 -22z m12 -717 c14 -9 36 -38 47 -63 19 -42 22 -64 22 -197 0 -144
-1 -152 -28 -207 -36 -74 -63 -90 -184 -112 l-33 -5 0 299 0 299 38 4 c58 7
111 0 138 -18z"/>
<path d="M1290 2206 c0 -15 119 -533 195 -852 l35 -146 0 -329 c0 -203 4 -329
10 -329 13 0 160 20 188 26 l22 4 0 310 0 309 120 493 c66 271 123 501 126
511 5 15 -4 17 -99 17 l-105 0 -16 -72 c-75 -343 -125 -562 -126 -558 -1 3
-34 145 -74 315 l-71 310 -103 3 c-85 2 -102 0 -102 -12z"/>
</g>
</svg>
