<svg xmlns="http://www.w3.org/2000/svg" version="1.1" xmlns:xlink="http://www.w3.org/1999/xlink" xmlns:svgjs="http://svgjs.com/svgjs" width="400" height="400"><svg id="SvgjsSvg1002" xmlns="http://www.w3.org/2000/svg" xmlns:xlink="http://www.w3.org/1999/xlink" width="400" height="400" viewBox="0, 0, 400,400"><g id="SvgjsG1001"><path id="SvgjsPath1000" d="M18.519 13.281 C 18.519 18.375,18.578 18.889,19.167 18.889 C 22.215 18.891,31.359 20.033,35.741 20.960 C 51.742 24.345,55.736 31.580,56.673 58.884 C 57.616 86.356,56.993 310.768,55.930 326.481 C 53.607 360.812,45.519 372.676,20.463 378.510 L 18.519 378.963 18.519 384.532 L 18.519 390.102 21.574 389.868 C 34.768 388.856,40.236 388.719,67.407 388.722 C 93.630 388.724,104.938 388.972,120.093 389.874 L 124.074 390.111 124.074 384.576 L 124.074 379.041 118.241 378.002 C 81.320 371.424,73.272 361.374,70.309 318.148 C 69.930 312.622,69.385 145.569,69.706 133.526 L 69.815 129.460 187.551 258.156 C 252.306 328.939,305.985 387.570,306.838 388.449 L 308.388 390.045 318.792 389.443 C 329.084 388.848,332.637 388.907,343.598 389.854 L 346.270 390.085 346.403 236.431 C 346.540 78.814,346.549 77.784,347.977 63.519 C 350.771 35.600,358.940 25.346,383.241 19.255 L 384.815 18.860 384.815 13.268 L 384.815 7.675 382.500 7.906 C 365.757 9.576,305.361 9.577,282.500 7.908 L 279.259 7.671 279.259 13.263 L 279.259 18.855 280.463 19.063 C 321.022 26.058,329.723 35.399,332.570 75.000 C 333.503 87.982,333.741 110.267,333.632 174.211 L 333.519 240.458 223.505 124.211 L 113.492 7.963 111.468 7.974 C 110.355 7.980,105.444 8.230,100.556 8.530 C 83.287 9.587,33.108 9.197,20.791 7.910 L 18.519 7.672 18.519 13.281 " stroke="none" fill="#000000" fill-rule="evenodd"></path></g></svg><style>@media (prefers-color-scheme: light) { :root { filter: none; } }
@media (prefers-color-scheme: dark) { :root { filter: invert(100%); } }
</style></svg>